<svg width="32" height="32" viewBox="0 0 32 32" fill="none" xmlns="http://www.w3.org/2000/svg">
<rect width="32" height="32" rx="5" fill="#8257E6"/>
<path d="M20.3718 8.14C20.3451 8.32667 20.2585 8.49333 20.1118 8.64C19.9785 8.78667 19.8185 8.91333 19.6318 9.02C19.4451 9.11333 19.2451 9.19333 19.0318 9.26C18.8318 9.31333 18.6451 9.34 18.4718 9.34C18.2585 9.34 18.0051 9.31333 17.7118 9.26C17.4318 9.20667 17.1585 9.14 16.8918 9.06C16.6385 8.98 16.4185 8.9 16.2318 8.82C16.0585 8.74 15.9718 8.66667 15.9718 8.6C15.9718 8.57333 15.9985 8.55333 16.0518 8.54C16.1051 8.52667 16.1718 8.51333 16.2518 8.5C16.3451 8.48667 16.4385 8.48 16.5318 8.48C16.6251 8.48 16.7051 8.48 16.7718 8.48C17.0385 8.48 17.3318 8.49333 17.6518 8.52C17.9851 8.54667 18.2851 8.55333 18.5518 8.54C18.7651 8.54 18.9451 8.53333 19.0918 8.52C19.2385 8.50667 19.3718 8.48667 19.4918 8.46C19.6251 8.42 19.7518 8.38 19.8718 8.34C19.9918 8.28667 20.1318 8.22 20.2918 8.14C20.3185 8.11333 20.3451 8.11333 20.3718 8.14ZM20.5718 7.5C20.5718 7.63333 20.5051 7.74667 20.3718 7.84C20.2518 7.93333 20.1051 8.01333 19.9318 8.08C19.7718 8.13333 19.5985 8.18 19.4118 8.22C19.2385 8.24667 19.1051 8.26 19.0118 8.26C18.5185 8.26 18.0185 8.20667 17.5118 8.1C17.0051 7.99333 16.5051 7.94 16.0118 7.94C15.4251 7.94 14.8985 8.08 14.4318 8.36C13.9651 8.62667 13.5985 9.00667 13.3318 9.5C13.3051 9.54 13.2718 9.56 13.2318 9.56C13.1918 9.56 13.1851 9.52667 13.2118 9.46C13.4251 8.80667 13.7651 8.28667 14.2318 7.9C14.6985 7.51333 15.3051 7.32 16.0518 7.32C16.6118 7.32 17.1651 7.38667 17.7118 7.52C18.2718 7.64 18.8318 7.7 19.3918 7.7C19.5918 7.7 19.7985 7.68 20.0118 7.64C20.2385 7.58667 20.3785 7.54667 20.4318 7.52C20.4451 7.50667 20.4718 7.5 20.5118 7.5C20.5518 7.48667 20.5718 7.48667 20.5718 7.5ZM14.9118 8.72C14.9118 8.74667 14.8718 8.79333 14.7918 8.86C14.7118 8.92667 14.6185 9 14.5118 9.08C14.4051 9.14667 14.2985 9.21333 14.1918 9.28C14.0985 9.33333 14.0318 9.37333 13.9918 9.4C13.8718 9.50667 13.7651 9.62 13.6718 9.74C13.5785 9.84667 13.4785 9.96 13.3718 10.08C13.3585 10.08 13.3518 10.0933 13.3518 10.12C13.3518 10.1333 13.3385 10.14 13.3118 10.14C13.2985 10.14 13.2918 10.12 13.2918 10.08C13.2918 9.92 13.3385 9.75333 13.4318 9.58C13.5251 9.40667 13.6385 9.25333 13.7718 9.12C13.9185 8.97333 14.0785 8.86 14.2518 8.78C14.4385 8.68667 14.6185 8.64 14.7918 8.64C14.8718 8.64 14.9118 8.66667 14.9118 8.72ZM19.4518 12.26C19.4651 12.9133 19.3985 13.6 19.2518 14.32C19.1051 15.0267 18.8985 15.7467 18.6318 16.48C18.3651 17.2 18.0585 17.9133 17.7118 18.62C17.3785 19.3267 17.0251 19.9933 16.6518 20.62C16.2785 21.2467 15.9051 21.8267 15.5318 22.36C15.1585 22.8933 14.8185 23.3467 14.5118 23.72C14.4985 23.7333 14.4785 23.7533 14.4518 23.78C14.4251 23.82 14.3985 23.8533 14.3718 23.88C14.3451 23.92 14.3185 23.94 14.2918 23.94C14.2651 23.9533 14.2518 23.9333 14.2518 23.88C14.2385 23.84 14.3118 23.6533 14.4718 23.32C14.6451 23 14.8518 22.6 15.0918 22.12C15.3451 21.64 15.6185 21.12 15.9118 20.56C16.2185 20 16.5051 19.4667 16.7718 18.96C17.0385 18.44 17.2718 17.9867 17.4718 17.6C17.6718 17.2 17.7985 16.9267 17.8518 16.78C17.9985 16.38 18.1451 15.96 18.2918 15.52C18.4518 15.0667 18.5918 14.6 18.7118 14.12C18.8451 13.64 18.9451 13.1467 19.0118 12.64C19.0918 12.1333 19.1251 11.62 19.1118 11.1C19.1118 10.9933 19.1185 10.94 19.1318 10.94C19.1585 10.94 19.1785 10.9533 19.1918 10.98C19.2051 10.9933 19.2251 11.0467 19.2518 11.14C19.2918 11.2733 19.3318 11.4667 19.3718 11.72C19.4251 11.96 19.4518 12.14 19.4518 12.26ZM17.8318 10.22C17.7251 11.3133 17.5585 12.3 17.3318 13.18C17.1051 14.0467 16.8518 14.8333 16.5718 15.54C16.3051 16.2467 16.0185 16.8867 15.7118 17.46C15.4185 18.0333 15.1518 18.56 14.9118 19.04C14.6585 19.5467 14.4185 20.0533 14.1918 20.56C13.9785 21.0667 13.7851 21.58 13.6118 22.1C13.4518 22.6333 13.3185 23.18 13.2118 23.74C13.1185 24.3 13.0718 24.8933 13.0718 25.52C13.0718 25.6667 13.0585 25.7267 13.0318 25.7C13.0051 25.7 12.9851 25.66 12.9718 25.58C12.9451 25.5133 12.9185 25.4267 12.8918 25.32C12.8651 25.2267 12.8451 25.1333 12.8318 25.04C12.8051 24.9467 12.7918 24.8667 12.7918 24.8C12.7251 24.1867 12.7318 23.6067 12.8118 23.06C12.8785 22.5267 12.9851 22.0133 13.1318 21.52C13.2918 21.0133 13.4785 20.5267 13.6918 20.06C13.9051 19.5933 14.1118 19.12 14.3118 18.64C14.5251 18.1333 14.7851 17.5467 15.0918 16.88C15.4118 16.2133 15.7251 15.5133 16.0318 14.78C16.3385 14.0333 16.6185 13.2733 16.8718 12.5C17.1251 11.7133 17.2985 10.9533 17.3918 10.22C16.8851 10.1933 16.3585 10.14 15.8118 10.06C15.2785 9.96667 14.7785 9.85333 14.3118 9.72C14.2851 9.70667 14.2585 9.69333 14.2318 9.68C14.2051 9.66667 14.1918 9.64667 14.1918 9.62C14.1785 9.58 14.2051 9.54667 14.2718 9.52C14.3518 9.49333 14.3985 9.48 14.4118 9.48C14.8385 9.37333 15.2385 9.32 15.6118 9.32C16.1185 9.32 16.6185 9.37333 17.1118 9.48C17.6051 9.57333 18.1051 9.62 18.6118 9.62C18.7718 9.62 18.9385 9.60667 19.1118 9.58C19.2985 9.54 19.4251 9.50667 19.4918 9.48C19.5451 9.45333 19.5718 9.46 19.5718 9.5C19.5718 9.52667 19.5651 9.55333 19.5518 9.58C19.4318 9.72667 19.2851 9.84667 19.1118 9.94C18.9518 10.02 18.7785 10.0867 18.5918 10.14C18.6318 10.3133 18.6585 10.4733 18.6718 10.62C18.6851 10.7533 18.6985 10.8733 18.7118 10.98C18.7918 11.66 18.7518 12.38 18.5918 13.14C18.4451 13.8867 18.2251 14.64 17.9318 15.4C17.6385 16.1467 17.2918 16.8867 16.8918 17.62C16.4918 18.34 16.0851 19.0067 15.6718 19.62C15.5651 19.7667 15.4851 19.8133 15.4318 19.76C15.3918 19.7067 15.4051 19.5933 15.4718 19.42C15.5518 19.2067 15.6785 18.9133 15.8518 18.54C16.0251 18.1533 16.2051 17.76 16.3918 17.36C16.5785 16.9467 16.7518 16.56 16.9118 16.2C17.0718 15.84 17.1785 15.58 17.2318 15.42C17.5785 14.34 17.8251 13.3667 17.9718 12.5C18.1318 11.62 18.1985 10.8533 18.1718 10.2C18.1051 10.2133 18.0451 10.22 17.9918 10.22C17.9385 10.22 17.8851 10.22 17.8318 10.22ZM14.3318 21.9C14.3318 21.98 14.3118 22.12 14.2718 22.32C14.2318 22.5333 14.1851 22.76 14.1318 23C14.0785 23.24 14.0251 23.4667 13.9718 23.68C13.9185 23.9067 13.8851 24.0733 13.8718 24.18C13.8051 24.46 13.7518 24.74 13.7118 25.02C13.6851 25.3 13.6585 25.5933 13.6318 25.9C13.6318 25.9267 13.6251 25.9667 13.6118 26.02C13.6118 26.0733 13.5918 26.1 13.5518 26.1C13.5251 26.0867 13.5051 26.0467 13.4918 25.98C13.4785 25.9133 13.4651 25.8667 13.4518 25.84C13.4251 25.72 13.3918 25.56 13.3518 25.36C13.3251 25.1733 13.3118 25.0267 13.3118 24.92C13.3118 24.5867 13.3451 24.2333 13.4118 23.86C13.4785 23.5 13.5585 23.1667 13.6518 22.86C13.7451 22.5533 13.8451 22.3 13.9518 22.1C14.0585 21.9 14.1585 21.8067 14.2518 21.82C14.2785 21.8333 14.2918 21.8467 14.2918 21.86C14.3051 21.8733 14.3185 21.8867 14.3318 21.9Z" fill="#292826"/>
</svg>
