<svg width="180" height="180" viewBox="0 0 180 180" fill="none" xmlns="http://www.w3.org/2000/svg">
<rect width="180" height="180" rx="20" fill="#8257E6"/>
<path d="M109.359 51.7C109.226 52.6333 108.792 53.4667 108.059 54.2C107.392 54.9333 106.592 55.5667 105.659 56.1C104.726 56.5667 103.726 56.9667 102.659 57.3C101.659 57.5667 100.726 57.7 99.859 57.7C98.7923 57.7 97.5257 57.5667 96.059 57.3C94.659 57.0333 93.2923 56.7 91.959 56.3C90.6923 55.9 89.5923 55.5 88.659 55.1C87.7923 54.7 87.359 54.3333 87.359 54C87.359 53.8667 87.4923 53.7667 87.759 53.7C88.0257 53.6333 88.359 53.5667 88.759 53.5C89.2257 53.4333 89.6923 53.4 90.159 53.4C90.6257 53.4 91.0257 53.4 91.359 53.4C92.6923 53.4 94.159 53.4667 95.759 53.6C97.4257 53.7333 98.9257 53.7667 100.259 53.7C101.326 53.7 102.226 53.6667 102.959 53.6C103.692 53.5333 104.359 53.4333 104.959 53.3C105.626 53.1 106.259 52.9 106.859 52.7C107.459 52.4333 108.159 52.1 108.959 51.7C109.092 51.5667 109.226 51.5667 109.359 51.7ZM110.359 48.5C110.359 49.1667 110.026 49.7333 109.359 50.2C108.759 50.6667 108.026 51.0667 107.159 51.4C106.359 51.6667 105.492 51.9 104.559 52.1C103.692 52.2333 103.026 52.3 102.559 52.3C100.092 52.3 97.5923 52.0333 95.059 51.5C92.5257 50.9667 90.0257 50.7 87.559 50.7C84.6257 50.7 81.9923 51.4 79.659 52.8C77.3257 54.1333 75.4923 56.0333 74.159 58.5C74.0257 58.7 73.859 58.8 73.659 58.8C73.459 58.8 73.4257 58.6333 73.559 58.3C74.6257 55.0333 76.3257 52.4333 78.659 50.5C80.9923 48.5667 84.0257 47.6 87.759 47.6C90.559 47.6 93.3257 47.9333 96.059 48.6C98.859 49.2 101.659 49.5 104.459 49.5C105.459 49.5 106.492 49.4 107.559 49.2C108.692 48.9333 109.392 48.7333 109.659 48.6C109.726 48.5333 109.859 48.5 110.059 48.5C110.259 48.4333 110.359 48.4333 110.359 48.5ZM82.059 54.6C82.059 54.7333 81.859 54.9667 81.459 55.3C81.059 55.6333 80.5923 56 80.059 56.4C79.5257 56.7333 78.9923 57.0667 78.459 57.4C77.9923 57.6667 77.659 57.8667 77.459 58C76.859 58.5333 76.3257 59.1 75.859 59.7C75.3923 60.2333 74.8923 60.8 74.359 61.4C74.2923 61.4 74.259 61.4667 74.259 61.6C74.259 61.6667 74.1923 61.7 74.059 61.7C73.9923 61.7 73.959 61.6 73.959 61.4C73.959 60.6 74.1923 59.7667 74.659 58.9C75.1257 58.0333 75.6923 57.2667 76.359 56.6C77.0923 55.8667 77.8923 55.3 78.759 54.9C79.6923 54.4333 80.5923 54.2 81.459 54.2C81.859 54.2 82.059 54.3333 82.059 54.6ZM104.759 72.3C104.826 75.5667 104.492 79 103.759 82.6C103.026 86.1333 101.992 89.7333 100.659 93.4C99.3257 97 97.7923 100.567 96.059 104.1C94.3923 107.633 92.6257 110.967 90.759 114.1C88.8923 117.233 87.0257 120.133 85.159 122.8C83.2923 125.467 81.5923 127.733 80.059 129.6C79.9923 129.667 79.8923 129.767 79.759 129.9C79.6257 130.1 79.4923 130.267 79.359 130.4C79.2257 130.6 79.0923 130.7 78.959 130.7C78.8257 130.767 78.759 130.667 78.759 130.4C78.6923 130.2 79.059 129.267 79.859 127.6C80.7257 126 81.759 124 82.959 121.6C84.2257 119.2 85.5923 116.6 87.059 113.8C88.5923 111 90.0257 108.333 91.359 105.8C92.6923 103.2 93.859 100.933 94.859 99C95.859 97 96.4923 95.6333 96.759 94.9C97.4923 92.9 98.2257 90.8 98.959 88.6C99.759 86.3333 100.459 84 101.059 81.6C101.726 79.2 102.226 76.7333 102.559 74.2C102.959 71.6667 103.126 69.1 103.059 66.5C103.059 65.9667 103.092 65.7 103.159 65.7C103.292 65.7 103.392 65.7667 103.459 65.9C103.526 65.9667 103.626 66.2333 103.759 66.7C103.959 67.3667 104.159 68.3333 104.359 69.6C104.626 70.8 104.759 71.7 104.759 72.3ZM96.659 62.1C96.1257 67.5667 95.2923 72.5 94.159 76.9C93.0257 81.2333 91.759 85.1667 90.359 88.7C89.0257 92.2333 87.5923 95.4333 86.059 98.3C84.5923 101.167 83.259 103.8 82.059 106.2C80.7923 108.733 79.5923 111.267 78.459 113.8C77.3923 116.333 76.4257 118.9 75.559 121.5C74.759 124.167 74.0923 126.9 73.559 129.7C73.0923 132.5 72.859 135.467 72.859 138.6C72.859 139.333 72.7923 139.633 72.659 139.5C72.5257 139.5 72.4257 139.3 72.359 138.9C72.2257 138.567 72.0923 138.133 71.959 137.6C71.8257 137.133 71.7257 136.667 71.659 136.2C71.5257 135.733 71.459 135.333 71.459 135C71.1257 131.933 71.159 129.033 71.559 126.3C71.8923 123.633 72.4257 121.067 73.159 118.6C73.959 116.067 74.8923 113.633 75.959 111.3C77.0257 108.967 78.059 106.6 79.059 104.2C80.1257 101.667 81.4257 98.7333 82.959 95.4C84.559 92.0667 86.1257 88.5667 87.659 84.9C89.1923 81.1667 90.5923 77.3667 91.859 73.5C93.1257 69.5667 93.9923 65.7667 94.459 62.1C91.9257 61.9667 89.2923 61.7 86.559 61.3C83.8923 60.8333 81.3923 60.2667 79.059 59.6C78.9257 59.5333 78.7923 59.4667 78.659 59.4C78.5257 59.3333 78.459 59.2333 78.459 59.1C78.3923 58.9 78.5257 58.7333 78.859 58.6C79.259 58.4667 79.4923 58.4 79.559 58.4C81.6923 57.8667 83.6923 57.6 85.559 57.6C88.0923 57.6 90.5923 57.8667 93.059 58.4C95.5257 58.8667 98.0257 59.1 100.559 59.1C101.359 59.1 102.192 59.0333 103.059 58.9C103.992 58.7 104.626 58.5333 104.959 58.4C105.226 58.2667 105.359 58.3 105.359 58.5C105.359 58.6333 105.326 58.7667 105.259 58.9C104.659 59.6333 103.926 60.2333 103.059 60.7C102.259 61.1 101.392 61.4333 100.459 61.7C100.659 62.5667 100.792 63.3667 100.859 64.1C100.926 64.7667 100.992 65.3667 101.059 65.9C101.459 69.3 101.259 72.9 100.459 76.7C99.7257 80.4333 98.6257 84.2 97.159 88C95.6923 91.7333 93.959 95.4333 91.959 99.1C89.959 102.7 87.9257 106.033 85.859 109.1C85.3257 109.833 84.9257 110.067 84.659 109.8C84.459 109.533 84.5257 108.967 84.859 108.1C85.259 107.033 85.8923 105.567 86.759 103.7C87.6257 101.767 88.5257 99.8 89.459 97.8C90.3923 95.7333 91.259 93.8 92.059 92C92.859 90.2 93.3923 88.9 93.659 88.1C95.3923 82.7 96.6257 77.8333 97.359 73.5C98.159 69.1 98.4923 65.2667 98.359 62C98.0257 62.0667 97.7257 62.1 97.459 62.1C97.1923 62.1 96.9257 62.1 96.659 62.1ZM79.159 120.5C79.159 120.9 79.059 121.6 78.859 122.6C78.659 123.667 78.4257 124.8 78.159 126C77.8923 127.2 77.6257 128.333 77.359 129.4C77.0923 130.533 76.9257 131.367 76.859 131.9C76.5257 133.3 76.259 134.7 76.059 136.1C75.9257 137.5 75.7923 138.967 75.659 140.5C75.659 140.633 75.6257 140.833 75.559 141.1C75.559 141.367 75.459 141.5 75.259 141.5C75.1257 141.433 75.0257 141.233 74.959 140.9C74.8923 140.567 74.8257 140.333 74.759 140.2C74.6257 139.6 74.459 138.8 74.259 137.8C74.1257 136.867 74.059 136.133 74.059 135.6C74.059 133.933 74.2257 132.167 74.559 130.3C74.8923 128.5 75.2923 126.833 75.759 125.3C76.2257 123.767 76.7257 122.5 77.259 121.5C77.7923 120.5 78.2923 120.033 78.759 120.1C78.8923 120.167 78.959 120.233 78.959 120.3C79.0257 120.367 79.0923 120.433 79.159 120.5Z" fill="#292826"/>
</svg>
